<?xml version="1.0" encoding="utf-8"?>
<svg viewBox="80.263 53.057 39.482 26" xmlns="http://www.w3.org/2000/svg">
  <g transform="matrix(0.132064, 0, 0, 0.132064, 83.902756, 44.705647)">
    <path d="M 131.513 194.362 L 131.415 88.863 L 121.847 79.956 L 112.277 89.409 L 112.377 194.323" style="fill:#231f20;fill-opacity:1;fill-rule:evenodd;stroke:none" id="path14"/>
    <path d="M 133.825 199.361 L 153.515 195.258 L 153.515 216.047 L 133.825 212.491 L 133.825 199.361" style="fill:#231f20;fill-opacity:1;fill-rule:evenodd;stroke:none" id="path20"/>
    <path d="M 110.149 199.361 L 90.46 195.258 L 90.46 216.047 L 110.149 212.491 L 110.149 199.361" style="fill:#231f20;fill-opacity:1;fill-rule:evenodd;stroke:none" id="path32"/>
    <path d="M 133.829 195.807 L 110.144 195.807 L 110.144 215.501 L 133.829 215.501 L 133.829 195.807" style="fill:#231f20;fill-opacity:1;fill-rule:evenodd;stroke:none" id="path44"/>
    <path d="M 110.983 250.139 C 111.136 247.079 112.259 245.32 113.645 245.102 L 130.008 241.268 C 131.579 240.931 132.925 242.823 132.925 245.54 C 132.925 247.238 132.399 249.239 131.621 250.315 Z M 113.645 244.962 L 130.008 241.128 C 131.579 240.749 132.925 238.208 132.925 235.491 C 132.925 232.774 131.579 230.883 130.008 231.219 L 113.645 235.053 C 112.169 235.338 110.824 237.879 110.824 240.597 C 110.824 243.313 112.169 245.205 113.645 244.962 Z M 113.645 234.913 L 130.008 231.079 C 131.579 230.7 132.925 228.16 132.925 225.442 C 132.925 222.725 131.579 220.833 130.008 221.171 L 113.645 225.004 C 112.169 225.289 110.824 227.831 110.824 230.548 C 110.824 233.264 112.169 235.156 113.645 234.913 Z M 113.645 224.864 L 130.008 221.031 C 131.284 220.723 132.412 219.111 132.789 217.014 C 132.877 216.53 133.068 217.39 133.068 216.881 L 111.791 216.815 C 111.053 216.958 112.203 215.928 111.681 216.939 C 111.161 217.949 110.824 219.14 110.824 220.498 C 110.824 223.216 112.169 225.108 113.645 224.864 Z M 130.996 253.491 L 113.324 253.5 L 132.097 253.509 L 134.347 253.544 C 135.839 253.537 137.065 252.819 137.065 251.938 C 137.065 251.057 135.839 250.339 134.347 250.332 L 109.577 250.332 C 108.055 250.339 106.827 251.057 106.827 251.938 C 106.827 252.819 108.055 253.537 109.577 253.544 L 113.224 253.523 C 113.863 257.273 117.559 260.115 122.08 260.115 C 126.603 260.115 130.369 257.211 130.996 253.491" style="fill:#231f20;fill-opacity:1;fill-rule:evenodd;stroke:none" id="path62"/>
    <path d="M -18.608 63.24 C 17.851 85.68 38.401 97.695 78.174 99.581 C 93.866 99.519 93.992 109.397 89.443 115.965 C 71.765 143.238 90.116 159.362 111.319 161.839 L 111.473 188.053 L 106.347 189.841 L 102.37 185.968 L 92.758 187.756 L 87.455 182.989 L 77.843 185.074 L 72.54 180.01 L 57.293 181.201 L 54.972 173.159 L 39.395 171.968 L 35.086 163.627 L 15.199 165.116 L 5.919 159.456 L 10.228 152.605 L 4.008 152.18 L -4.687 145.158 L -1.042 138.902 L -7.67 138.604 L -13.967 129.668 L -10.654 121.923 L -13.637 121.327 L -20.928 110.007 L -18.608 102.537 L -23.197 101.208 L -27.558 92.432 L -22.254 82.304 L -27.226 74.261 C -24.353 70.587 -21.481 66.914 -18.608 63.24" style="fill:#231f20;fill-opacity:1;fill-rule:evenodd;stroke:none" id="path68"/>
    <path d="M 262.454 63.24 C 225.996 85.68 205.446 97.695 165.673 99.581 C 149.981 99.519 149.855 109.397 154.404 115.965 C 172.081 143.238 153.731 159.362 132.528 161.839 L 132.373 188.053 L 137.5 189.841 L 141.477 185.968 L 151.089 187.756 L 156.392 182.989 L 166.004 185.074 L 171.307 180.01 L 186.554 181.201 L 188.874 173.159 L 204.452 171.968 L 208.761 163.627 L 228.648 165.116 L 237.928 159.456 L 233.618 152.605 L 239.838 152.18 L 248.534 145.158 L 244.888 138.902 L 251.517 138.604 L 257.814 129.668 L 254.5 121.923 L 257.484 121.327 L 264.776 110.007 L 262.454 102.537 L 267.044 101.208 L 271.404 92.432 L 266.101 82.304 L 271.073 74.261 C 268.2 70.587 265.328 66.914 262.454 63.24" style="fill:#231f20;fill-opacity:1;fill-rule:evenodd;stroke:none" id="path74"/>
  </g>
</svg>